<?xml version="1.0" encoding="UTF-8"?>
<svg xmlns="http://www.w3.org/2000/svg" width="308" height="60" viewBox="0 0 308 60">
  <g id="Marca" transform="translate(0 0)">
    <rect id="Rectangle_7" data-name="Rectangle 7" width="308" height="60" transform="translate(0 0)" fill="rgba(255,255,255,0)"></rect>
    <g id="Isotip" transform="translate(0 0)">
      <path id="Path_1" data-name="Path 1" d="M19.69,33.766,21,31.484,34.462,8.068V57.421H6.1ZM2.272,59.731H36.539V.133ZM2.083,2.338h28.38l-13.11,22.8-1.312,2.289L2.083,51.705ZM0,0V59.64L34.28,0Z" fill="#986b4e"></path>
      <path id="Path_2" data-name="Path 2" d="M33.057,49.394l-.051,3.445-18-19.813.028-3.473Z" transform="translate(-5.763 -11.33)" fill="#986b4e"></path>
    </g>
    <g id="Premium" transform="translate(51.393 0)">
      <path id="M2" d="M469.143,71.347l-1.7-29.509A2.564,2.564,0,0,1,470,39.125h.384v-.187h-3.511a2.86,2.86,0,0,0-2.6,1.677L451.005,69.791,437.754,40.615a2.861,2.861,0,0,0-2.6-1.677H430.6v.187a2.563,2.563,0,0,1,2.559,2.674l-1.246,29.078a3.726,3.726,0,0,1-3.721,3.565v.2h8.353v-.2a3.278,3.278,0,0,1-3.274-3.423l1.215-27.712,14.141,31.135h1.766l13.773-30.323,1.688,28.433a1.783,1.783,0,0,1-1.78,1.89v.2h8.354v-.2a3.288,3.288,0,0,1-3.281-3.095" transform="translate(-215.818 -14.929)" fill="#986b4e"></path>
      <path id="U" d="M402.01,38.938h-8.274v.187h0a3.456,3.456,0,0,1,3.455,3.458V62.405a11.154,11.154,0,0,1-11.148,11.16,12.42,12.42,0,0,1-12.414-12.426V41.586a2.46,2.46,0,0,1,2.458-2.461v-.187h-8.956v.187a2.46,2.46,0,0,1,2.458,2.461V61.13c0,9.122,7.387,13.8,16.5,13.8a12.47,12.47,0,0,0,12.464-12.476V42.583a3.456,3.456,0,0,1,3.455-3.458Z" transform="translate(-192.373 -14.929)" fill="#986b4e"></path>
      <path id="I" d="M356.438,39.125v-.187H347.5v.187a2.459,2.459,0,0,1,2.458,2.461V71.992a2.459,2.459,0,0,1-2.458,2.46v.187h8.934v-.187a2.459,2.459,0,0,1-2.458-2.46V41.586a2.459,2.459,0,0,1,2.458-2.461" transform="translate(-184.835 -14.929)" fill="#986b4e"></path>
      <path id="M1" d="M311.136,71.347l-1.7-29.509a2.564,2.564,0,0,1,2.558-2.712h.384v-.187h-3.511a2.86,2.86,0,0,0-2.6,1.677L293,69.791,279.747,40.615a2.861,2.861,0,0,0-2.6-1.677h-4.555v.187a2.563,2.563,0,0,1,2.56,2.674L273.9,70.877a3.726,3.726,0,0,1-3.721,3.565v.2h8.353v-.2a3.278,3.278,0,0,1-3.274-3.423l1.215-27.712,14.141,31.135h1.766l13.773-30.323,1.688,28.433a1.783,1.783,0,0,1-1.78,1.89v.2h8.354v-.2a3.288,3.288,0,0,1-3.281-3.095" transform="translate(-155.143 -14.929)" fill="#986b4e"></path>
      <path id="E" d="M239.809,40.347c4.814,0,6.289,2.54,6.289,2.54h.187v-2.97a.979.979,0,0,0-.979-.979H223.272v.188a2.459,2.459,0,0,1,2.458,2.452V72a2.46,2.46,0,0,1-2.458,2.453v.187h22.034a.979.979,0,0,0,.979-.979V70.687h-.169c-1.05,1.6-3.618,2.518-6.484,2.541l-9.81,0V56.377h5.618c2.866.024,5.434.946,6.485,2.542v-6.5c-1.051,1.6-3.619,2.517-6.485,2.541h-5.618V40.347Z" transform="translate(-137.13 -14.929)" fill="#986b4e"></path>
      <path id="R" d="M193.223,73.289,178.236,57.427h.962a9.245,9.245,0,0,0,0-18.489H161.076v.187a2.46,2.46,0,0,1,2.459,2.461V71.992a2.459,2.459,0,0,1-2.459,2.46v.188h8.914v-.188a2.459,2.459,0,0,1-2.458-2.46V57.427h6.083L187.42,72.039a8.3,8.3,0,0,0,6.029,2.6h2.473v-.188a3.712,3.712,0,0,1-2.7-1.164M167.532,56.721V39.644h9.576a7.7,7.7,0,0,1,7.7,7.7v1.67a7.7,7.7,0,0,1-7.7,7.7Z" transform="translate(-113.247 -14.929)" fill="#986b4e"></path>
      <path id="P" d="M112.67,30.923a15.462,15.462,0,0,0,0-30.923H83.431V.314a4.113,4.113,0,0,1,4.111,4.115V55.282A4.113,4.113,0,0,1,83.431,59.4v.314H97.269V59.4a4.113,4.113,0,0,1-4.111-4.115V30.923ZM93.158,29.742V1.182h16.016a12.877,12.877,0,0,1,12.871,12.883v2.793a12.877,12.877,0,0,1-12.871,12.883Z" transform="translate(-83.431)" fill="#986b4e"></path>
    </g>
  </g>
</svg>
